<mxfile host="app.diagrams.net" modified="2023-10-16T05:56:37.224Z" agent="Mozilla/5.0 (Windows NT 10.0; Win64; x64) AppleWebKit/537.36 (KHTML, like Gecko) Chrome/117.0.0.0 Safari/537.36" etag="n7Qkftp_aGEaRz0Iq5Cb" version="22.0.4" type="github">
  <diagram name="Page-1" id="syPvT0p1GBWjdDlG7r07">
    <mxGraphModel dx="1434" dy="828" grid="1" gridSize="10" guides="1" tooltips="1" connect="1" arrows="1" fold="1" page="1" pageScale="1" pageWidth="850" pageHeight="1100" math="0" shadow="0">
      <root>
        <mxCell id="0" />
        <mxCell id="1" parent="0" />
        <mxCell id="YTr76Yab9tnVYdm06Xic-32" value="Patient&lt;br&gt;" style="shape=umlActor;verticalLabelPosition=bottom;verticalAlign=top;html=1;outlineConnect=0;" vertex="1" parent="1">
          <mxGeometry x="100" y="60" width="30" height="60" as="geometry" />
        </mxCell>
        <mxCell id="YTr76Yab9tnVYdm06Xic-33" value="Patient" style="shape=umlActor;verticalLabelPosition=bottom;verticalAlign=top;html=1;outlineConnect=0;" vertex="1" parent="1">
          <mxGeometry x="100" y="600" width="30" height="60" as="geometry" />
        </mxCell>
        <mxCell id="YTr76Yab9tnVYdm06Xic-34" value="Waitlist&lt;br&gt;Database" style="shape=cylinder3;whiteSpace=wrap;html=1;boundedLbl=1;backgroundOutline=1;size=15;" vertex="1" parent="1">
          <mxGeometry x="560" y="50" width="60" height="80" as="geometry" />
        </mxCell>
        <mxCell id="YTr76Yab9tnVYdm06Xic-35" value="Waitlist&lt;br&gt;Database" style="shape=cylinder3;whiteSpace=wrap;html=1;boundedLbl=1;backgroundOutline=1;size=15;" vertex="1" parent="1">
          <mxGeometry x="560" y="600" width="60" height="80" as="geometry" />
        </mxCell>
        <mxCell id="YTr76Yab9tnVYdm06Xic-36" value="" style="endArrow=none;dashed=1;html=1;dashPattern=1 3;strokeWidth=2;rounded=0;" edge="1" parent="1">
          <mxGeometry width="50" height="50" relative="1" as="geometry">
            <mxPoint x="115" y="590" as="sourcePoint" />
            <mxPoint x="115" y="150" as="targetPoint" />
          </mxGeometry>
        </mxCell>
        <mxCell id="YTr76Yab9tnVYdm06Xic-37" value="" style="endArrow=none;dashed=1;html=1;dashPattern=1 3;strokeWidth=2;rounded=0;entryX=0.5;entryY=1;entryDx=0;entryDy=0;exitX=0.5;exitY=0;exitDx=0;exitDy=0;" edge="1" parent="1" source="YTr76Yab9tnVYdm06Xic-43" target="YTr76Yab9tnVYdm06Xic-39">
          <mxGeometry width="50" height="50" relative="1" as="geometry">
            <mxPoint x="560" y="590" as="sourcePoint" />
            <mxPoint x="559.5" y="160" as="targetPoint" />
          </mxGeometry>
        </mxCell>
        <mxCell id="YTr76Yab9tnVYdm06Xic-38" value="" style="endArrow=none;dashed=1;html=1;dashPattern=1 3;strokeWidth=2;rounded=0;entryX=0.5;entryY=1;entryDx=0;entryDy=0;exitX=0.5;exitY=0;exitDx=0;exitDy=0;" edge="1" parent="1" source="YTr76Yab9tnVYdm06Xic-42" target="YTr76Yab9tnVYdm06Xic-40">
          <mxGeometry width="50" height="50" relative="1" as="geometry">
            <mxPoint x="415" y="590" as="sourcePoint" />
            <mxPoint x="414.5" y="160" as="targetPoint" />
          </mxGeometry>
        </mxCell>
        <mxCell id="YTr76Yab9tnVYdm06Xic-39" value="Authorization&lt;br&gt;back-end" style="rounded=0;whiteSpace=wrap;html=1;" vertex="1" parent="1">
          <mxGeometry x="360" y="75" width="120" height="30" as="geometry" />
        </mxCell>
        <mxCell id="YTr76Yab9tnVYdm06Xic-40" value="Authorization&lt;br&gt;front-end" style="rounded=0;whiteSpace=wrap;html=1;" vertex="1" parent="1">
          <mxGeometry x="200" y="75" width="120" height="30" as="geometry" />
        </mxCell>
        <mxCell id="YTr76Yab9tnVYdm06Xic-41" value="" style="endArrow=none;dashed=1;html=1;dashPattern=1 3;strokeWidth=2;rounded=0;exitX=0.5;exitY=0;exitDx=0;exitDy=0;exitPerimeter=0;entryX=0.5;entryY=1;entryDx=0;entryDy=0;entryPerimeter=0;" edge="1" parent="1" source="YTr76Yab9tnVYdm06Xic-35" target="YTr76Yab9tnVYdm06Xic-34">
          <mxGeometry width="50" height="50" relative="1" as="geometry">
            <mxPoint x="590" y="580" as="sourcePoint" />
            <mxPoint x="589.5" y="150" as="targetPoint" />
          </mxGeometry>
        </mxCell>
        <mxCell id="YTr76Yab9tnVYdm06Xic-42" value="Authorization&lt;br&gt;front-end" style="rounded=0;whiteSpace=wrap;html=1;" vertex="1" parent="1">
          <mxGeometry x="200" y="625" width="120" height="30" as="geometry" />
        </mxCell>
        <mxCell id="YTr76Yab9tnVYdm06Xic-43" value="Authorization&lt;br&gt;back-end" style="rounded=0;whiteSpace=wrap;html=1;" vertex="1" parent="1">
          <mxGeometry x="360" y="625" width="120" height="30" as="geometry" />
        </mxCell>
        <mxCell id="YTr76Yab9tnVYdm06Xic-44" value="" style="endArrow=classic;html=1;rounded=0;" edge="1" parent="1">
          <mxGeometry width="50" height="50" relative="1" as="geometry">
            <mxPoint x="120" y="200" as="sourcePoint" />
            <mxPoint x="260" y="200" as="targetPoint" />
          </mxGeometry>
        </mxCell>
        <mxCell id="YTr76Yab9tnVYdm06Xic-45" value="Submit Login&lt;br&gt;Information" style="text;html=1;align=center;verticalAlign=middle;resizable=0;points=[];autosize=1;strokeColor=none;fillColor=none;" vertex="1" parent="1">
          <mxGeometry x="140" y="160" width="90" height="40" as="geometry" />
        </mxCell>
        <mxCell id="YTr76Yab9tnVYdm06Xic-47" value="" style="endArrow=classic;html=1;rounded=0;" edge="1" parent="1">
          <mxGeometry width="50" height="50" relative="1" as="geometry">
            <mxPoint x="260" y="240" as="sourcePoint" />
            <mxPoint x="420" y="240" as="targetPoint" />
          </mxGeometry>
        </mxCell>
        <mxCell id="YTr76Yab9tnVYdm06Xic-48" value="Send Login&lt;br&gt;Information" style="text;html=1;align=center;verticalAlign=middle;resizable=0;points=[];autosize=1;strokeColor=none;fillColor=none;" vertex="1" parent="1">
          <mxGeometry x="290" y="200" width="80" height="40" as="geometry" />
        </mxCell>
        <mxCell id="YTr76Yab9tnVYdm06Xic-49" value="" style="endArrow=classic;html=1;rounded=0;" edge="1" parent="1">
          <mxGeometry width="50" height="50" relative="1" as="geometry">
            <mxPoint x="420" y="280" as="sourcePoint" />
            <mxPoint x="590" y="280" as="targetPoint" />
          </mxGeometry>
        </mxCell>
        <mxCell id="YTr76Yab9tnVYdm06Xic-50" value="If No Match" style="text;html=1;align=center;verticalAlign=middle;resizable=0;points=[];autosize=1;strokeColor=none;fillColor=none;" vertex="1" parent="1">
          <mxGeometry x="465" y="440" width="80" height="30" as="geometry" />
        </mxCell>
        <mxCell id="YTr76Yab9tnVYdm06Xic-51" value="If Match" style="text;html=1;align=center;verticalAlign=middle;resizable=0;points=[];autosize=1;strokeColor=none;fillColor=none;" vertex="1" parent="1">
          <mxGeometry x="470" y="320" width="70" height="30" as="geometry" />
        </mxCell>
        <mxCell id="YTr76Yab9tnVYdm06Xic-53" value="Check Login&lt;br&gt;Information" style="text;html=1;align=center;verticalAlign=middle;resizable=0;points=[];autosize=1;strokeColor=none;fillColor=none;" vertex="1" parent="1">
          <mxGeometry x="460" y="240" width="90" height="40" as="geometry" />
        </mxCell>
        <mxCell id="YTr76Yab9tnVYdm06Xic-54" value="" style="endArrow=classic;html=1;rounded=0;" edge="1" parent="1">
          <mxGeometry width="50" height="50" relative="1" as="geometry">
            <mxPoint x="590" y="320" as="sourcePoint" />
            <mxPoint x="420" y="320" as="targetPoint" />
          </mxGeometry>
        </mxCell>
        <mxCell id="YTr76Yab9tnVYdm06Xic-59" value="" style="endArrow=classic;html=1;rounded=0;" edge="1" parent="1">
          <mxGeometry width="50" height="50" relative="1" as="geometry">
            <mxPoint x="420" y="360" as="sourcePoint" />
            <mxPoint x="260" y="360" as="targetPoint" />
          </mxGeometry>
        </mxCell>
        <mxCell id="YTr76Yab9tnVYdm06Xic-60" value="Send Login Successful&lt;br&gt;Message" style="text;html=1;align=center;verticalAlign=middle;resizable=0;points=[];autosize=1;strokeColor=none;fillColor=none;" vertex="1" parent="1">
          <mxGeometry x="255" y="360" width="150" height="40" as="geometry" />
        </mxCell>
        <mxCell id="YTr76Yab9tnVYdm06Xic-61" value="Display Login Successful&lt;br&gt;Message" style="text;html=1;align=center;verticalAlign=middle;resizable=0;points=[];autosize=1;strokeColor=none;fillColor=none;" vertex="1" parent="1">
          <mxGeometry x="105" y="400" width="160" height="40" as="geometry" />
        </mxCell>
        <mxCell id="YTr76Yab9tnVYdm06Xic-63" value="" style="endArrow=classic;html=1;rounded=0;entryX=0.067;entryY=-0.075;entryDx=0;entryDy=0;entryPerimeter=0;" edge="1" parent="1">
          <mxGeometry width="50" height="50" relative="1" as="geometry">
            <mxPoint x="255" y="399" as="sourcePoint" />
            <mxPoint x="115.04999999999995" y="399" as="targetPoint" />
          </mxGeometry>
        </mxCell>
        <mxCell id="YTr76Yab9tnVYdm06Xic-64" value="" style="endArrow=classic;html=1;rounded=0;" edge="1" parent="1">
          <mxGeometry width="50" height="50" relative="1" as="geometry">
            <mxPoint x="590" y="440" as="sourcePoint" />
            <mxPoint x="420" y="440" as="targetPoint" />
          </mxGeometry>
        </mxCell>
        <mxCell id="YTr76Yab9tnVYdm06Xic-65" value="" style="endArrow=classic;html=1;rounded=0;" edge="1" parent="1">
          <mxGeometry width="50" height="50" relative="1" as="geometry">
            <mxPoint x="420" y="480" as="sourcePoint" />
            <mxPoint x="260" y="480" as="targetPoint" />
          </mxGeometry>
        </mxCell>
        <mxCell id="YTr76Yab9tnVYdm06Xic-66" value="Send Login Failed&lt;br&gt;Message" style="text;html=1;align=center;verticalAlign=middle;resizable=0;points=[];autosize=1;strokeColor=none;fillColor=none;" vertex="1" parent="1">
          <mxGeometry x="270" y="480" width="120" height="40" as="geometry" />
        </mxCell>
        <mxCell id="YTr76Yab9tnVYdm06Xic-67" value="Display Login Failed&lt;br&gt;Message" style="text;html=1;align=center;verticalAlign=middle;resizable=0;points=[];autosize=1;strokeColor=none;fillColor=none;" vertex="1" parent="1">
          <mxGeometry x="120" y="521" width="130" height="40" as="geometry" />
        </mxCell>
        <mxCell id="YTr76Yab9tnVYdm06Xic-68" value="" style="endArrow=classic;html=1;rounded=0;entryX=0.067;entryY=-0.075;entryDx=0;entryDy=0;entryPerimeter=0;" edge="1" parent="1">
          <mxGeometry width="50" height="50" relative="1" as="geometry">
            <mxPoint x="255" y="520" as="sourcePoint" />
            <mxPoint x="115.04999999999995" y="520" as="targetPoint" />
          </mxGeometry>
        </mxCell>
      </root>
    </mxGraphModel>
  </diagram>
</mxfile>
